<?xml version="1.0" standalone="no"?>
<!DOCTYPE svg PUBLIC "-//W3C//DTD SVG 20010904//EN"
 "http://www.w3.org/TR/2001/REC-SVG-20010904/DTD/svg10.dtd">
<svg version="1.0" xmlns="http://www.w3.org/2000/svg"
 width="668.000000pt" height="668.000000pt" viewBox="0 0 668.000000 668.000000"
 preserveAspectRatio="xMidYMid meet">
<metadata>
Created by potrace 1.14, written by Peter Selinger 2001-2017
</metadata>
<g transform="translate(0.000000,668.000000) scale(0.100000,-0.100000)"
fill="#000000" stroke="none">
<path d="M5090 5379 c-41 -8 -149 -54 -160 -69 -10 -14 -140 -99 -172 -113
-68 -29 -84 -33 -107 -28 -27 7 -50 36 -38 48 4 4 17 2 28 -5 25 -16 59 0 54
25 -2 10 -4 21 -4 24 -1 10 -47 20 -63 14 -22 -9 -46 -58 -42 -85 2 -14 13
-32 24 -42 27 -22 26 -25 -17 -33 -21 -5 -45 -10 -53 -12 -78 -19 -197 0 -250
39 -50 37 -57 123 -13 156 22 16 69 8 95 -14 19 -18 19 -55 0 -62 -6 -2 -9 5
-7 17 2 14 -3 22 -18 27 -24 8 -27 7 -28 -3 -1 -5 -5 -15 -10 -24 -21 -41 57
-73 92 -38 21 21 24 45 9 83 -28 75 -153 80 -192 8 -18 -34 -14 -105 8 -144
47 -82 208 -109 379 -65 11 3 34 9 52 12 31 7 31 7 24 -27 -12 -50 -4 -80 27
-109 22 -20 36 -25 61 -21 76 11 83 109 9 135 -16 6 -57 -28 -50 -42 2 -3 8
-14 13 -23 11 -21 45 -24 52 -5 3 7 6 6 6 -5 2 -32 -44 -46 -71 -21 -58 52 18
160 186 267 30 19 29 14 -6 -36 -11 -16 -17 -28 -13 -28 3 0 -1 -13 -10 -30
-17 -32 -20 -87 -5 -110 6 -9 5 -17 -3 -22 -8 -5 -6 -8 6 -8 9 0 18 -8 18 -17
1 -10 3 -40 4 -68 1 -27 3 -53 4 -58 0 -4 19 6 41 22 34 25 49 29 90 27 82 -5
117 -41 140 -142 16 -68 15 -486 -1 -550 -25 -103 -98 -214 -218 -333 -82 -82
-85 -86 -108 -168 -13 -46 -21 -88 -18 -93 10 -16 29 -12 53 10 12 11 24 20
28 20 13 0 133 132 169 186 40 60 93 169 100 204 8 44 25 47 26 5 3 -84 5
-111 25 -262 6 -48 33 -111 52 -119 21 -8 115 -9 137 0 15 5 14 9 -4 32 -19
24 -38 75 -47 129 -29 159 -34 246 -39 620 -2 171 -5 317 -8 325 -39 148 -87
209 -187 237 l-55 15 3 37 c5 49 -31 94 -77 97 -18 1 -30 0 -27 -3 3 -4 -1
-11 -8 -17 -14 -11 -19 -33 -17 -69 2 -28 42 -39 65 -17 15 14 16 21 7 39 -7
12 -16 19 -22 16 -5 -4 -9 -2 -9 4 0 22 21 21 46 -4 20 -20 24 -32 19 -53 -4
-15 -8 -28 -9 -29 -1 -1 -32 -5 -69 -9 -66 -6 -67 -6 -78 22 -9 25 -9 45 3
122 1 6 5 12 10 12 4 0 8 6 8 13 0 21 74 92 117 113 67 34 181 19 228 -30 27
-28 54 -74 47 -81 -4 -5 -2 -5 5 -1 6 3 14 -1 17 -11 10 -30 69 -89 121 -122
78 -50 165 -38 217 30 39 49 33 111 -14 154 -22 21 -43 31 -59 29 -13 -1 -27
-3 -31 -3 -18 -2 -48 -43 -48 -63 0 -13 8 -33 18 -44 14 -18 22 -20 50 -12 35
9 43 36 17 58 -12 10 -18 10 -30 0 -12 -10 -15 -10 -15 4 0 9 3 16 8 17 4 0
14 2 22 3 27 6 63 -13 56 -30 -3 -8 -2 -12 3 -9 19 11 22 -35 4 -65 -19 -32
-78 -56 -113 -45 -34 11 -70 46 -107 103 -60 97 -100 138 -155 165 -59 29
-129 38 -198 26z m258 -127 c38 -55 75 -127 59 -114 -8 7 -43 51 -76 98 -50
70 -55 81 -31 64 16 -11 38 -33 48 -48z"/>
<path d="M4283 5018 c-24 -6 -33 -15 -34 -31 -3 -43 0 -109 4 -113 3 -3 21 6
40 19 82 56 177 2 206 -116 10 -41 15 -450 11 -924 l0 -63 -127 0 -128 0 -24
-56 c-16 -37 -21 -58 -14 -62 6 -4 111 -7 232 -6 224 1 258 6 234 36 -23 28
-26 100 -28 568 -1 267 -5 503 -10 525 -23 111 -88 193 -174 219 -52 15 -140
17 -188 4z"/>
<path d="M3797 5000 c-3 -13 3 -24 20 -35 14 -9 34 -38 46 -63 20 -44 22 -65
24 -336 1 -159 5 -291 8 -294 7 -7 93 88 101 110 3 10 9 18 14 18 16 0 23 93
22 290 0 206 -3 233 -24 277 -19 39 -53 53 -134 53 -63 0 -72 -2 -77 -20z"/>
<path d="M2527 3937 c-3 -20 3 -37 18 -56 40 -48 48 -93 47 -282 -1 -111 -5
-186 -12 -199 -11 -21 -5 -79 8 -81 4 -1 95 -3 202 -4 206 -4 228 -6 274 -24
149 -59 197 -282 100 -472 -22 -46 -136 -213 -154 -229 -20 -17 -135 -181
-158 -224 -21 -41 -26 -65 -27 -123 0 -93 15 -112 95 -114 77 -2 78 -2 96 26
12 19 14 31 6 53 -6 18 -7 47 -1 77 10 51 47 135 61 135 4 0 8 5 8 11 0 6 17
32 38 57 20 26 40 51 44 57 5 5 27 35 51 65 148 187 207 320 207 466 0 140
-32 237 -103 308 -79 78 -163 103 -359 104 -73 0 -140 1 -149 1 -13 1 -17 12
-18 44 0 23 -1 49 -2 57 0 8 0 67 1 130 1 131 -3 168 -18 196 -23 43 -41 49
-148 50 l-102 1 -5 -30z"/>
<path d="M2207 3786 c-44 -30 -68 -67 -74 -114 -10 -77 38 -140 97 -127 41 9
56 33 51 82 -2 19 -32 45 -47 39 -7 -3 -18 2 -24 10 -10 11 -9 19 3 38 22 32
50 37 87 15 61 -37 85 -142 43 -191 -12 -13 -12 -16 -1 -14 70 11 100 115 58
202 -35 71 -132 101 -193 60z"/>
<path d="M1683 3472 c-19 -19 -16 -29 12 -60 14 -15 30 -43 35 -62 6 -21 10
-288 10 -671 l0 -637 -49 -32 c-69 -44 -115 -97 -213 -246 -127 -192 -212
-246 -325 -208 -71 24 -108 70 -112 137 -6 95 134 176 183 105 8 -11 11 -28 9
-39 -6 -20 -6 -20 -25 1 -36 39 -96 12 -83 -38 18 -73 118 -80 159 -11 20 35
17 98 -6 126 -21 26 -86 51 -128 48 -156 -9 -223 -231 -106 -348 24 -24 75
-56 101 -64 143 -41 255 -5 378 121 86 88 87 89 129 158 18 29 38 60 45 68 7
8 19 24 27 35 14 18 15 13 16 -58 0 -85 20 -146 49 -148 9 -1 58 -2 110 -3 85
-1 94 1 101 19 5 13 1 29 -12 47 -29 42 -44 106 -43 193 l0 79 30 6 c44 9 146
-14 207 -47 161 -87 280 -297 246 -433 -33 -129 -204 -162 -275 -54 -23 36
-24 125 0 148 32 33 68 45 93 34 27 -13 34 -44 8 -34 -27 10 -64 -20 -64 -53
0 -74 99 -80 137 -8 29 55 -34 157 -97 157 -43 0 -94 -33 -113 -73 -18 -38
-29 -125 -16 -133 5 -3 9 -13 9 -22 0 -24 56 -89 93 -108 69 -36 178 -10 238
57 77 87 58 253 -46 407 -32 47 -31 56 4 38 48 -25 231 -165 280 -215 58 -57
92 -128 93 -191 0 -53 -15 -84 -49 -99 -57 -26 -113 -2 -113 49 0 21 1 22 18
7 17 -15 35 -20 60 -18 22 2 41 61 30 94 -20 56 -89 56 -138 0 -80 -90 10
-221 132 -194 48 11 72 31 98 85 22 46 26 111 10 165 -5 19 -7 37 -5 41 3 4
34 -3 69 -15 180 -63 438 -79 581 -37 75 23 175 95 175 128 0 7 4 14 8 14 17
0 30 71 27 145 -2 59 -7 82 -26 109 -47 69 -148 99 -234 69 -119 -40 -161
-189 -70 -252 86 -58 197 34 139 117 -16 23 -48 28 -73 13 -9 -6 -12 -21 -9
-45 2 -21 0 -36 -7 -36 -12 0 -44 20 -32 20 4 0 3 8 -2 18 -15 28 16 80 62
103 28 15 51 19 81 15 22 -3 44 -5 48 -5 4 -1 20 -19 34 -41 38 -58 38 -142 0
-200 -58 -88 -196 -143 -355 -143 -104 0 -129 4 -240 34 -98 26 -114 35 -79
44 40 10 79 57 84 101 10 77 -66 161 -135 150 -41 -6 -60 -23 -66 -59 -10 -55
67 -91 99 -46 18 27 43 19 52 -16 15 -62 -88 -95 -184 -60 -92 33 -291 152
-337 201 -15 16 -114 78 -170 107 -101 51 -174 71 -262 71 -24 -1 -44 2 -44 5
-1 3 -2 296 -3 651 -2 686 -4 711 -49 726 -40 14 -199 10 -214 -4z m57 -1517
c0 -3 -20 -31 -43 -62 -24 -32 -57 -78 -73 -103 -46 -72 -143 -185 -151 -176
-7 7 142 248 172 277 63 60 95 82 95 64z"/>
<path d="M2139 3480 c0 -3 -2 -16 -5 -29 -3 -16 4 -32 21 -48 49 -49 51 -80
53 -618 0 -275 1 -527 1 -561 1 -93 9 -99 130 -100 95 0 102 1 107 20 3 12 -3
39 -12 61 -15 36 -17 101 -19 625 -2 621 -2 631 -49 647 -24 7 -226 11 -227 3z"/>
<path d="M3549 3461 c-8 -19 -5 -29 10 -45 41 -45 48 -95 49 -359 0 -139 1
-276 1 -304 1 -30 6 -53 12 -53 17 0 168 119 181 143 15 28 21 537 6 585 -14
46 -40 56 -152 56 -95 1 -99 0 -107 -23z"/>
<path d="M3995 3477 c-21 -11 -19 -43 4 -66 38 -38 44 -93 45 -405 1 -205 4
-300 12 -303 15 -5 166 114 182 144 10 18 14 91 14 293 1 285 -4 323 -46 336
-30 11 -193 11 -211 1z"/>
<path d="M4495 3482 c-38 -2 -73 -8 -77 -14 -6 -11 4 -39 23 -62 5 -6 23 -29
39 -51 16 -22 34 -45 40 -52 5 -7 10 -16 10 -22 0 -5 4 -11 8 -13 10 -4 72
-95 127 -186 l38 -64 -44 -43 c-158 -153 -211 -285 -213 -530 -2 -151 8 -244
30 -287 15 -30 16 -30 169 -30 113 0 115 1 115 25 0 14 -13 35 -31 51 -61 55
-73 100 -75 304 -1 101 2 200 7 220 4 20 10 50 13 65 8 43 53 115 78 123 16 5
26 0 39 -17 9 -13 18 -28 20 -34 1 -5 21 -39 45 -75 39 -61 191 -331 292 -520
25 -47 53 -98 62 -115 l17 -30 102 -1 c76 0 104 3 113 14 12 14 -7 57 -125
277 -86 160 -147 266 -165 288 -8 9 -11 17 -6 17 5 0 2 5 -6 10 -13 9 -12 13
7 29 12 10 35 29 50 42 42 36 96 107 131 172 17 31 29 57 26 57 -2 0 0 8 5 18
18 34 24 76 27 194 3 112 -10 196 -33 219 -14 14 -103 28 -109 18 -3 -5 -10
-7 -15 -3 -10 6 -118 8 -124 2 -2 -2 -6 -15 -10 -30 -5 -20 -3 -27 12 -32 59
-19 91 -183 69 -356 -10 -82 -50 -176 -89 -208 -18 -15 -32 4 -137 173 -41 66
-79 125 -85 131 -5 7 -57 81 -113 166 -100 148 -105 154 -140 156 -19 2 -38 4
-41 5 -3 1 -37 1 -76 -1z"/>
<path d="M4508 1921 c-2 -23 -1 -41 2 -42 3 -1 20 -2 39 -3 19 -1 39 -10 47
-20 14 -20 8 -37 -33 -89 -24 -29 -30 -57 -14 -57 5 0 12 8 16 19 3 10 17 31
30 47 45 52 27 110 -35 116 -30 3 -34 7 -35 30 0 43 -12 42 -17 -1z"/>
<path d="M3843 1892 c-13 -2 -23 -7 -23 -12 0 -5 15 -6 33 -3 51 8 69 -16 66
-89 -1 -32 2 -63 8 -69 15 -15 9 136 -6 155 -13 16 -45 23 -78 18z"/>
<path d="M3979 1883 c-13 -15 -12 -15 8 -5 17 10 25 8 42 -6 15 -13 21 -31 23
-77 l2 -60 -50 -5 c-61 -6 -45 -19 24 -18 l51 0 -3 75 c-3 47 -9 80 -18 89
-22 23 -64 26 -79 7z"/>
<path d="M4129 1889 c-20 -12 -3 -22 18 -11 19 11 50 0 65 -22 4 -6 8 -39 8
-73 0 -34 4 -64 9 -68 17 -10 5 145 -12 162 -17 17 -68 24 -88 12z"/>
<path d="M4939 1890 c-21 -13 -4 -23 19 -11 26 14 74 -21 71 -53 -3 -49 2
-117 9 -112 14 9 7 130 -9 154 -17 24 -67 36 -90 22z"/>
<path d="M4280 1887 c0 -8 113 -172 120 -175 12 -4 -50 110 -79 147 -20 26
-41 40 -41 28z"/>
<path d="M4376 1878 c4 -7 7 -28 6 -48 -1 -28 1 -31 8 -15 15 34 12 75 -6 75
-9 0 -12 -5 -8 -12z"/>
<path d="M4645 1873 c2 -10 6 -45 9 -78 5 -72 26 -94 82 -89 56 4 77 31 79
101 2 54 -7 83 -25 83 -4 0 -4 -17 0 -37 8 -50 -8 -111 -32 -124 -19 -10 -77
-4 -79 9 -8 42 -5 52 16 52 12 0 27 6 32 13 14 18 10 79 -6 85 -9 3 -11 -1 -7
-16 4 -11 4 -32 0 -47 -9 -37 -39 -29 -40 11 0 32 -10 54 -24 54 -4 0 -7 -8
-5 -17z"/>
<path d="M5085 1880 c3 -5 13 -10 21 -10 23 0 15 -78 -14 -129 -15 -28 -19
-42 -11 -39 8 3 20 15 26 29 7 13 13 21 14 17 1 -5 3 -12 4 -18 1 -5 3 -14 4
-20 0 -5 5 -10 11 -10 10 0 5 136 -6 173 -3 10 -15 17 -30 17 -14 0 -22 -4
-19 -10z"/>
<path d="M5184 1874 c3 -9 6 -30 6 -47 0 -24 3 -28 10 -17 16 25 12 80 -6 80
-11 0 -14 -5 -10 -16z"/>
<path d="M5244 1878 c-4 -7 -4 -10 1 -6 4 4 15 3 25 -2 24 -13 18 -91 -11
-131 -23 -33 -18 -54 6 -23 14 18 16 18 26 2 5 -10 15 -18 20 -18 6 0 8 4 5 9
-3 4 -8 43 -11 86 -3 42 -8 81 -11 86 -8 13 -42 11 -50 -3z"/>
<path d="M5349 1883 c-1 -5 -1 -12 0 -16 1 -5 2 -40 2 -78 1 -38 5 -71 10 -75
5 -3 9 32 9 80 0 83 1 86 23 86 48 0 54 -15 56 -132 1 -28 5 -36 15 -32 10 4
13 23 12 71 -2 55 -6 69 -25 85 -23 18 -100 26 -102 11z"/>
<path d="M4294 1803 c-16 -29 -18 -93 -2 -93 10 0 13 10 10 34 -2 18 1 43 7
55 14 25 0 29 -15 4z"/>
<path d="M3817 1789 c-3 -10 -2 -21 3 -24 4 -2 5 -16 2 -30 -2 -14 0 -25 6
-25 14 0 20 89 6 94 -7 3 -14 -4 -17 -15z"/>
<path d="M4120 1760 c0 -27 5 -50 10 -50 6 0 10 23 10 50 0 28 -4 50 -10 50
-5 0 -10 -22 -10 -50z"/>
<path d="M4930 1770 c0 -22 0 -43 -1 -47 0 -4 4 -9 10 -11 7 -2 11 15 11 47 0
28 -4 51 -10 51 -5 0 -10 -18 -10 -40z"/>
</g>
</svg>
